<svg xmlns="http://www.w3.org/2000/svg" viewBox="0 0 64 64" role="img" aria-label="Crypto favicon">
  <defs>
    <linearGradient id="coinGrad" x1="0" x2="1" y1="0" y2="1">
      <stop offset="0%" stop-color="#ffb857"/>
      <stop offset="100%" stop-color="#f7931a"/>
    </linearGradient>
  </defs>
  <circle cx="32" cy="32" r="28" fill="url(#coinGrad)"/>
  <circle cx="32" cy="32" r="23" fill="none" stroke="#fff3d6" stroke-width="2" opacity="0.9"/>
  <path d="M31 18h8.5c5.5 0 9.5 2.7 9.5 7.2 0 4.1-2.8 6.7-7.1 7.5v.2c5.3.5 8.9 3.4 8.9 8.3 0 5.7-4.7 9.3-11.6 9.3H31v-32Zm5 12.8h3.3c3 0 5.1-1.4 5.1-3.8 0-2.5-2.1-3.8-5.2-3.8H36v7.6Zm0 14.8h4c3.5 0 5.8-1.6 5.8-4.5 0-3-2.4-4.5-5.9-4.5H36v9Zm-8-26.8h-6v3.5h4.2v3h-4.2v3h6v3h-9v-12.5h9v-3Z" fill="#fff" opacity="0.95"/>
</svg>
